<?xml version="1.0" encoding="UTF-8"?>
<svg id="Layer_1" data-name="Layer 1" xmlns="http://www.w3.org/2000/svg" viewBox="0 0 1300 900">
  <defs>
    <style>
      .cls-1 {
        fill: #0e0e14;
        stroke-width: 0px;
      }
    </style>
  </defs>
  <polygon class="cls-1" points="757.85 414.23 829.75 414.23 829.75 342.33 757.85 270.43 685.95 270.43 685.95 342.33 757.85 342.33 757.85 414.23"/>
  <rect class="cls-1" x="614.05" y="342.33" width="71.9" height="71.9"/>
  <polygon class="cls-1" points="685.95 414.23 685.95 485.77 614.05 485.77 614.05 414.23 542.15 414.23 542.15 485.77 470.25 485.77 470.25 557.67 542.15 629.57 614.05 629.57 614.05 557.67 542.15 557.67 542.15 486.13 614.05 486.13 614.05 557.67 685.95 557.67 685.95 486.13 757.85 486.13 757.85 557.67 685.95 557.67 685.95 629.57 757.85 629.57 829.75 557.67 829.75 485.77 757.85 485.77 757.85 414.23 685.95 414.23"/>
  <polygon class="cls-1" points="614.05 342.33 614.05 270.43 542.15 270.43 470.25 342.33 470.25 414.23 542.15 414.23 542.15 342.33 614.05 342.33"/>
</svg>